# xmcd CD database file
#
# Track frame offsets:
#	150
#	30582
#	69178
#	95158
#	120905
#	153997
#
# Disc length: 2588 seconds
#
# Revision: 1
# Processed by: cddbd v1.5.1PL2 Copyright (c) Steve Scherf et al.
# Submitted via: CDex 1.40Release
#
DISCID=3f0a1a06
DTITLE=unknown - Club Jazz: Somethin' Fresh
DYEAR=1998
DGENRE=Jazz
TTITLE0=Infinite
TTITLE1=Many Moods
TTITLE2=The Double Sacrifice
TTITLE3=The Summer Off
TTITLE4=Outside Looking In
TTITLE5=Frustration
EXTD=YEAR: 1998 ID3G: 8
EXTT0=
EXTT1=
EXTT2=
EXTT3=
EXTT4=
EXTT5=
PLAYORDER=
